<svg width="12" height="14" viewBox="0 0 12 14" fill="none" xmlns="http://www.w3.org/2000/svg">
<path d="M0.666687 2.33343C0.6667 2.24478 0.684394 2.15701 0.718736 2.07528C0.753077 1.99355 0.803376 1.91949 0.866687 1.85743C1.59325 1.14519 2.56392 0.736584 3.58112 0.714786C4.59833 0.692988 5.58561 1.05963 6.34202 1.7401L6.57602 1.95876C7.06231 2.38483 7.68682 2.61972 8.33335 2.61972C8.97989 2.61972 9.6044 2.38483 10.0907 1.95876L10.2567 1.80743C10.6634 1.48543 11.2747 1.74276 11.33 2.2581L11.3334 2.33343V8.33343C11.3333 8.42208 11.3156 8.50984 11.2813 8.59158C11.247 8.67331 11.1967 8.74737 11.1334 8.80943C10.4068 9.52167 9.43612 9.93027 8.41892 9.95207C7.40171 9.97387 6.41443 9.60723 5.65802 8.92676L5.42402 8.7081C4.95304 8.29543 4.35187 8.06167 3.72583 8.04778C3.0998 8.03388 2.48884 8.24074 2.00002 8.6321V13.0001C1.99983 13.17 1.93477 13.3335 1.81812 13.457C1.70148 13.5806 1.54205 13.6549 1.37242 13.6649C1.2028 13.6748 1.03577 13.6196 0.905465 13.5106C0.775163 13.4015 0.691423 13.2468 0.671354 13.0781L0.666687 13.0001V2.33343Z" fill="black"/>
</svg>
