<svg width="48" height="48" viewBox="0 0 48 48" fill="none" xmlns="http://www.w3.org/2000/svg">
<path d="M44.4 35.2668L28.0031 6.79113C27.5934 6.09349 27.0084 5.51504 26.3063 5.11312C25.6041 4.7112 24.8091 4.49976 24 4.49976C23.1909 4.49976 22.3959 4.7112 21.6937 5.11312C20.9916 5.51504 20.4066 6.09349 19.9969 6.79113L3.6 35.2668C3.20575 35.9415 2.99799 36.709 2.99799 37.4905C2.99799 38.272 3.20575 39.0395 3.6 39.7143C4.00449 40.4161 4.58844 40.9977 5.29192 41.3994C5.99541 41.801 6.79309 42.0083 7.60312 41.9999H40.3969C41.2063 42.0076 42.0032 41.8 42.7059 41.3984C43.4087 40.9968 43.9921 40.4156 44.3962 39.7143C44.7911 39.0398 44.9995 38.2725 45.0001 37.491C45.0008 36.7095 44.7937 35.9419 44.4 35.2668ZM22.5 19.4999C22.5 19.1021 22.658 18.7205 22.9393 18.4392C23.2206 18.1579 23.6022 17.9999 24 17.9999C24.3978 17.9999 24.7794 18.1579 25.0607 18.4392C25.342 18.7205 25.5 19.1021 25.5 19.4999V26.9999C25.5 27.3977 25.342 27.7792 25.0607 28.0605C24.7794 28.3418 24.3978 28.4999 24 28.4999C23.6022 28.4999 23.2206 28.3418 22.9393 28.0605C22.658 27.7792 22.5 27.3977 22.5 26.9999V19.4999ZM24 35.9999C23.555 35.9999 23.12 35.8679 22.75 35.6207C22.38 35.3735 22.0916 35.022 21.9213 34.6109C21.751 34.1998 21.7064 33.7474 21.7932 33.3109C21.88 32.8745 22.0943 32.4736 22.409 32.1589C22.7237 31.8442 23.1246 31.6299 23.561 31.5431C23.9975 31.4563 24.4499 31.5009 24.861 31.6712C25.2722 31.8414 25.6236 32.1298 25.8708 32.4998C26.118 32.8699 26.25 33.3049 26.25 33.7499C26.25 34.3466 26.0129 34.9189 25.591 35.3409C25.169 35.7628 24.5967 35.9999 24 35.9999Z" fill="black"/>
</svg>
