<svg width="284" height="48" viewBox="0 0 284 48" fill="none" xmlns="http://www.w3.org/2000/svg">
<g clip-path="url(#clip0_38_46)">
<path d="M24.375 10.75C24.375 12 24.1771 13.1823 23.7812 14.2969C23.3854 15.4115 22.7292 16.375 21.8125 17.1875C20.8958 18 19.8021 18.4062 18.5312 18.4062C16.9479 18.4062 15.5104 17.8073 14.2187 16.6094C12.9271 15.4115 11.9687 14 11.3437 12.375C10.7187 10.75 10.4062 9.17708 10.4062 7.65625C10.4062 6.40625 10.6042 5.22396 11 4.10938C11.3958 2.99479 12.0521 2.03125 12.9687 1.21875C13.8854 0.40625 14.9792 0 16.25 0C17.8542 0 19.2969 0.598958 20.5781 1.79688C21.8594 2.99479 22.8125 4.40104 23.4375 6.01562C24.0625 7.63021 24.375 9.20833 24.375 10.75ZM13.6875 25.8438C13.6875 27.5104 13.25 28.9583 12.375 30.1875C11.5 31.4167 10.2604 32.0312 8.65625 32.0312C7.07292 32.0312 5.59896 31.4531 4.23437 30.2969C2.86979 29.1406 1.82292 27.75 1.09375 26.125C0.364583 24.5 0 22.9167 0 21.375C0 19.7083 0.4375 18.2552 1.3125 17.0156C2.1875 15.776 3.42708 15.1562 5.03125 15.1562C6.61458 15.1562 8.08854 15.7344 9.45312 16.8906C10.8177 18.0469 11.8646 19.4427 12.5937 21.0781C13.3229 22.7135 13.6875 24.3021 13.6875 25.8438ZM26 25C28.4583 25 31.1146 26.0156 33.9687 28.0469C36.8229 30.0781 39.2083 32.5469 41.125 35.4531C43.0417 38.3594 44 41.0104 44 43.4062C44 44.3646 43.8229 45.1615 43.4687 45.7969C43.1146 46.4323 42.6094 46.901 41.9531 47.2031C41.2969 47.5052 40.625 47.7135 39.9375 47.8281C39.25 47.9427 38.4583 48 37.5625 48C36.1458 48 34.1927 47.5312 31.7031 46.5938C29.2135 45.6562 27.3125 45.1875 26 45.1875C24.625 45.1875 22.6198 45.651 19.9844 46.5781C17.349 47.5052 15.2604 47.9688 13.7187 47.9688C9.90625 47.9688 8 46.4479 8 43.4062C8 41.6146 8.58333 39.6198 9.75 37.4219C10.9167 35.224 12.3698 33.2188 14.1094 31.4062C15.849 29.5938 17.8021 28.0729 19.9687 26.8438C22.1354 25.6146 24.1458 25 26 25ZM33.4687 18.4062C32.1979 18.4062 31.1042 18 30.1875 17.1875C29.2708 16.375 28.6146 15.4115 28.2187 14.2969C27.8229 13.1823 27.625 12 27.625 10.75C27.625 9.20833 27.9375 7.63021 28.5625 6.01562C29.1875 4.40104 30.1406 2.99479 31.4219 1.79688C32.7031 0.598958 34.1458 0 35.75 0C37.0208 0 38.1146 0.40625 39.0312 1.21875C39.9479 2.03125 40.6042 2.99479 41 4.10938C41.3958 5.22396 41.5937 6.40625 41.5937 7.65625C41.5937 9.17708 41.2812 10.75 40.6562 12.375C40.0312 14 39.0729 15.4115 37.7812 16.6094C36.4896 17.8073 35.0521 18.4062 33.4687 18.4062ZM46.9687 15.1562C48.5729 15.1562 49.8125 15.776 50.6875 17.0156C51.5625 18.2552 52 19.7083 52 21.375C52 22.9167 51.6354 24.5 50.9062 26.125C50.1771 27.75 49.1302 29.1406 47.7656 30.2969C46.401 31.4531 44.9271 32.0312 43.3437 32.0312C41.7396 32.0312 40.5 31.4167 39.625 30.1875C38.75 28.9583 38.3125 27.5104 38.3125 25.8438C38.3125 24.3021 38.6771 22.7135 39.4062 21.0781C40.1354 19.4427 41.1823 18.0469 42.5469 16.8906C43.9115 15.7344 45.3854 15.1562 46.9687 15.1562Z" fill="white"/>
</g>
<path d="M99.9375 21.2715C99.9375 22.5977 99.7393 23.7734 99.3428 24.7988C98.9463 25.8242 98.3994 26.7197 97.7021 27.4854C97.0186 28.251 96.2119 28.9004 95.2822 29.4336C94.3525 29.9668 93.3545 30.4043 92.2881 30.7461C91.2354 31.0742 90.1416 31.3203 89.0068 31.4844C87.8721 31.6348 86.7578 31.7168 85.6641 31.7305V41.2871H76.1074C76.1074 38.1562 76.1143 35.0391 76.1279 31.9355C76.1416 28.832 76.1621 25.7012 76.1895 22.543C76.2168 20.875 76.2236 19.207 76.21 17.5391C76.1963 15.8711 76.2305 14.1895 76.3125 12.4941C78.0625 11.9746 79.8125 11.585 81.5625 11.3252C83.3125 11.0654 85.1172 10.9355 86.9766 10.9355C88.0293 10.9355 89.082 11.0244 90.1348 11.2021C91.1875 11.3662 92.1924 11.6328 93.1494 12.002C94.1201 12.3711 95.0156 12.8359 95.8359 13.3965C96.6699 13.9434 97.3877 14.5996 97.9893 15.3652C98.5908 16.1309 99.0625 17.0059 99.4043 17.9902C99.7598 18.9609 99.9375 20.0547 99.9375 21.2715ZM90.832 21.9688C90.832 21.0801 90.5586 20.3896 90.0117 19.8975C89.4785 19.3916 88.7812 19.1387 87.9199 19.1387C87.6328 19.1387 87.332 19.166 87.0176 19.2207C86.7168 19.2617 86.4297 19.3164 86.1562 19.3848L85.9102 25.373C86.1016 25.4004 86.2861 25.4141 86.4639 25.4141C86.6416 25.4141 86.8262 25.4141 87.0176 25.4141C87.5098 25.4141 87.9814 25.332 88.4326 25.168C88.8975 25.0039 89.3076 24.7715 89.6631 24.4707C90.0186 24.1562 90.2988 23.7939 90.5039 23.3838C90.7227 22.96 90.832 22.4883 90.832 21.9688ZM123.952 24.4297C123.952 25.6191 123.87 26.8086 123.706 27.998C121.368 28.1484 119.044 28.3945 116.733 28.7363C114.423 29.0645 112.112 29.3926 109.802 29.7207C110.157 30.7051 110.711 31.4912 111.463 32.0791C112.229 32.667 113.138 32.9609 114.19 32.9609C114.737 32.9609 115.332 32.8584 115.975 32.6533C116.631 32.4482 117.28 32.1953 117.923 31.8945C118.565 31.5801 119.181 31.2451 119.769 30.8896C120.356 30.5342 120.862 30.2129 121.286 29.9258L120.302 39.2363C119.769 39.6465 119.188 39.9951 118.559 40.2822C117.943 40.5693 117.301 40.8018 116.631 40.9795C115.961 41.1572 115.284 41.2871 114.601 41.3691C113.917 41.4512 113.247 41.4922 112.591 41.4922C111.237 41.4922 110 41.3076 108.879 40.9385C107.758 40.5693 106.739 40.0566 105.823 39.4004C104.921 38.7305 104.128 37.9443 103.444 37.042C102.761 36.1396 102.193 35.1553 101.742 34.0889C101.291 33.0225 100.949 31.8945 100.717 30.7051C100.484 29.5156 100.368 28.3125 100.368 27.0957C100.368 25.8242 100.484 24.5527 100.717 23.2812C100.949 22.0098 101.298 20.7861 101.763 19.6104C102.241 18.4346 102.836 17.3477 103.547 16.3496C104.271 15.3379 105.112 14.4561 106.069 13.7041C107.026 12.9521 108.106 12.3643 109.31 11.9404C110.526 11.5166 111.866 11.3047 113.329 11.3047C114.546 11.3047 115.653 11.4756 116.651 11.8174C117.663 12.1455 118.559 12.6104 119.338 13.2119C120.131 13.7998 120.814 14.5039 121.389 15.3242C121.977 16.1445 122.455 17.0469 122.824 18.0312C123.207 19.002 123.487 20.0342 123.665 21.1279C123.856 22.208 123.952 23.3086 123.952 24.4297ZM115.749 23.3633C115.749 22.9805 115.708 22.5908 115.626 22.1943C115.544 21.7842 115.407 21.415 115.216 21.0869C115.038 20.7588 114.799 20.4922 114.498 20.2871C114.197 20.0684 113.821 19.959 113.37 19.959C112.823 19.959 112.338 20.1094 111.914 20.4102C111.504 20.6973 111.148 21.0664 110.848 21.5176C110.547 21.9551 110.301 22.4336 110.109 22.9531C109.918 23.4727 109.774 23.9512 109.679 24.3887L115.749 23.8145V23.3633ZM147.023 12.084L146.818 20.7793L140.707 21.0254L139.969 40.0566L131.314 40.5078L130.535 21.4766L124.424 21.8047L124.67 12.125L147.023 12.084ZM182.256 39.2363L172.084 40.5488L170.854 35.9141H166.178L165.152 40.5488L154.693 39.5234L162.855 12.207L174.258 11.6328L182.256 39.2363ZM170.115 29.6387L168.557 22.502L167.039 29.6387H170.115ZM205.922 24.7168C205.922 26.6309 205.676 28.3467 205.184 29.8643C204.691 31.3818 204.001 32.7285 203.112 33.9043C202.237 35.0664 201.191 36.0576 199.975 36.8779C198.758 37.6982 197.425 38.375 195.976 38.9082C194.526 39.4277 192.981 39.8105 191.341 40.0566C189.714 40.3027 188.039 40.4258 186.316 40.4258C185.674 40.4258 185.045 40.4121 184.43 40.3848C183.814 40.3438 183.186 40.2891 182.543 40.2207L183.117 13.5195C184.621 13.041 186.166 12.7061 187.752 12.5146C189.352 12.3096 190.938 12.207 192.51 12.207C194.465 12.207 196.263 12.4805 197.903 13.0273C199.544 13.5742 200.959 14.3809 202.148 15.4473C203.338 16.5 204.261 17.8057 204.917 19.3643C205.587 20.9092 205.922 22.6934 205.922 24.7168ZM191.977 32.5918C192.797 32.4688 193.542 32.2227 194.212 31.8535C194.896 31.4707 195.483 31.0059 195.976 30.459C196.468 29.8984 196.844 29.2695 197.104 28.5723C197.377 27.8613 197.514 27.1094 197.514 26.3164C197.514 25.5371 197.432 24.8125 197.268 24.1426C197.104 23.459 196.837 22.8711 196.468 22.3789C196.099 21.873 195.613 21.4766 195.012 21.1895C194.41 20.8887 193.672 20.7246 192.797 20.6973L191.977 32.5918ZM232.562 25.291C232.562 26.5352 232.418 27.7383 232.131 28.9004C231.844 30.0488 231.427 31.1289 230.88 32.1406C230.347 33.1523 229.69 34.082 228.911 34.9297C228.146 35.7637 227.277 36.4814 226.307 37.083C225.35 37.6846 224.304 38.1562 223.169 38.498C222.034 38.8262 220.831 38.9902 219.56 38.9902C218.329 38.9902 217.153 38.833 216.032 38.5186C214.925 38.2041 213.886 37.7666 212.915 37.2061C211.944 36.6318 211.062 35.9482 210.27 35.1553C209.49 34.3486 208.82 33.46 208.26 32.4893C207.713 31.5049 207.282 30.4521 206.968 29.3311C206.667 28.21 206.517 27.041 206.517 25.8242C206.517 24.6348 206.66 23.4727 206.947 22.3379C207.234 21.1895 207.645 20.1094 208.178 19.0977C208.725 18.0859 209.381 17.1562 210.146 16.3086C210.912 15.4609 211.767 14.7295 212.71 14.1143C213.667 13.499 214.699 13.0205 215.807 12.6787C216.914 12.3369 218.083 12.166 219.313 12.166C221.296 12.166 223.101 12.4736 224.728 13.0889C226.368 13.7041 227.763 14.5859 228.911 15.7344C230.073 16.8691 230.969 18.25 231.598 19.877C232.24 21.4902 232.562 23.2949 232.562 25.291ZM223.456 25.8242C223.456 25.2363 223.367 24.6689 223.189 24.1221C223.025 23.5615 222.779 23.0693 222.451 22.6455C222.123 22.208 221.713 21.8594 221.221 21.5996C220.742 21.3262 220.188 21.1895 219.56 21.1895C218.917 21.1895 218.343 21.3057 217.837 21.5381C217.331 21.7705 216.894 22.0918 216.524 22.502C216.169 22.8984 215.896 23.3701 215.704 23.917C215.513 24.4502 215.417 25.0176 215.417 25.6191C215.417 26.1934 215.499 26.7676 215.663 27.3418C215.827 27.916 216.073 28.4355 216.401 28.9004C216.729 29.3652 217.133 29.7412 217.611 30.0283C218.104 30.3154 218.671 30.459 219.313 30.459C219.956 30.459 220.53 30.3359 221.036 30.0898C221.556 29.8301 221.993 29.4883 222.349 29.0645C222.704 28.627 222.978 28.1279 223.169 27.5674C223.36 27.0068 223.456 26.4258 223.456 25.8242ZM257.889 22.0918C257.889 23.418 257.69 24.5938 257.294 25.6191C256.897 26.6445 256.351 27.5469 255.653 28.3262C254.97 29.0918 254.163 29.7412 253.233 30.2744C252.304 30.7939 251.306 31.2246 250.239 31.5664C249.187 31.8945 248.093 32.1406 246.958 32.3047C245.823 32.4551 244.709 32.5371 243.615 32.5508V41.2871H234.059C234.059 39.7285 234.059 38.2109 234.059 36.7344C234.072 35.2578 234.079 33.7949 234.079 32.3457C234.093 30.8828 234.1 29.4131 234.1 27.9365C234.113 26.46 234.127 24.9355 234.141 23.3633C234.168 21.6953 234.175 20.0273 234.161 18.3594C234.147 16.6914 234.182 15.0098 234.264 13.3145C236.014 12.7949 237.764 12.4053 239.514 12.1455C241.264 11.8857 243.068 11.7559 244.928 11.7559C245.98 11.7559 247.033 11.8447 248.086 12.0225C249.139 12.1865 250.144 12.4531 251.101 12.8223C252.071 13.1914 252.967 13.6563 253.787 14.2168C254.621 14.7637 255.339 15.4199 255.94 16.1855C256.542 16.9512 257.014 17.8262 257.355 18.8105C257.711 19.7949 257.889 20.8887 257.889 22.0918ZM248.783 22.7891C248.783 21.9004 248.51 21.21 247.963 20.7178C247.43 20.2119 246.732 19.959 245.871 19.959C245.584 19.959 245.283 19.9863 244.969 20.041C244.668 20.082 244.381 20.1367 244.107 20.2051L243.861 26.1934C244.053 26.2207 244.237 26.2344 244.415 26.2344C244.593 26.2344 244.777 26.2344 244.969 26.2344C245.461 26.2344 245.933 26.1523 246.384 25.9883C246.849 25.8242 247.259 25.5918 247.614 25.291C247.97 24.9766 248.25 24.6143 248.455 24.2041C248.674 23.7803 248.783 23.3086 248.783 22.7891ZM280.775 12.084L280.57 20.7793L274.459 21.0254L273.721 40.0566L265.066 40.5078L264.287 21.4766L258.176 21.8047L258.422 12.125L280.775 12.084Z" fill="white"/>
<defs>
<clipPath id="clip0_38_46">
<rect width="52" height="48" fill="white"/>
</clipPath>
</defs>
</svg>
