<svg width="24" height="24" viewBox="0 0 24 24" fill="none" xmlns="http://www.w3.org/2000/svg">
<path d="M16.2265 5.66992C16.4744 6.90916 15.1736 6.98833 14.9919 7.99098C14.9552 8.19367 15.1229 8.4452 15.3592 8.64456C15.8762 8.34452 16.3696 8.04452 16.6436 7.43725C16.6482 8.05005 16.6867 8.39303 16.5207 8.9043C16.7707 8.80319 16.9932 8.61414 17.0825 8.386C17.4285 7.50212 17.1621 6.81381 16.2265 5.66992ZM8.55726 5.76475C7.55587 6.38186 6.96975 7.57328 7.32267 8.51373C7.40034 8.72078 7.5907 8.87059 7.81697 8.96397C8.20978 8.40344 8.31464 7.64359 8.43858 6.89692C8.62556 7.58092 8.86908 8.24603 8.79319 9.01764C9.11428 8.91048 9.41981 8.66927 9.51197 8.36561C9.78009 7.48187 8.58923 7.03694 8.55726 5.76475ZM4.53469 6.36625C3.59915 7.51014 2.87625 8.5053 3.26723 9.59261C3.36975 9.87761 3.63979 10.0975 3.94987 10.2257C3.95559 9.79783 4.15795 9.41373 4.31864 9.02041C4.42922 9.466 4.77197 9.83613 5.17326 10.1605C5.37154 10.0316 5.53467 9.84817 5.60465 9.64192C5.93231 8.67709 4.28686 7.60548 4.53469 6.3663V6.36625ZM12.3762 6.76591C11.4406 7.90975 10.8775 8.86019 11.1087 9.99231C11.1802 10.3425 11.4444 10.7167 11.7727 10.894C11.7117 10.1435 11.9487 9.49225 12.1317 8.82302C12.251 9.54194 12.3526 10.2731 12.7106 10.8268C13.0613 10.6237 13.3641 10.2833 13.4462 10.0417C13.7738 9.07684 12.7045 8.03805 12.3762 6.76591ZM20.3029 6.87034C19.3674 8.01423 18.6445 8.76559 18.8544 9.84972C18.9156 10.1658 19.201 10.4682 19.5171 10.5885C19.4411 9.9363 19.6846 9.37403 19.8716 8.79588C19.9882 9.38941 20.0879 9.99273 20.4262 10.4566C20.6483 10.3253 20.8305 10.1397 20.8955 9.94853C21.2231 8.9837 20.0551 8.10962 20.3029 6.87034ZM8.41097 9.39756C8.08312 9.39658 7.74154 9.44125 7.37704 9.56247V20.5782H9.62704V9.56247C9.23118 9.47575 8.83242 9.39887 8.41097 9.39756ZM15.8828 9.57133C15.5526 9.57433 15.218 9.65345 14.8761 9.8657L14.8759 9.86022C14.8759 9.86022 14.397 10.8155 14.4771 11.3285C14.5235 11.626 14.7501 11.6125 14.872 11.4767V20.5782H17.3196V9.86819C16.843 9.72634 16.3675 9.56697 15.8828 9.57133ZM4.57369 10.7658C4.03997 10.762 3.53325 10.8924 3.0345 11.0625V11.8151C2.75887 12.2456 2.26626 13.1118 2.38687 13.6448C2.46398 13.9856 2.78198 14.0397 3.0345 13.9473V20.5782H5.877V19.1681C6.12633 19.2304 6.43045 19.1862 6.50564 18.9365C6.62348 18.5452 6.15572 17.915 5.87705 17.5847V11.0625C5.4203 10.8529 4.98886 10.7688 4.57369 10.7658ZM19.9797 11.048C19.6521 11.0472 19.2471 11.188 18.7155 11.561V20.5782H20.9655V19.8392C21.1383 19.8376 21.3931 19.4638 21.4805 18.904C21.6375 17.8979 21.0273 16.7346 20.9655 16.62V11.561C20.6947 11.2841 20.4011 11.049 19.9797 11.048V11.048ZM12.3145 11.3277C11.989 11.3272 11.6416 11.409 11.2718 11.5746V17.3486C11.0558 17.7698 10.8681 18.2661 10.9476 18.6174C10.993 18.8179 11.122 18.9189 11.2718 18.9496V20.5782H13.2255V11.5746C12.9435 11.411 12.64 11.3282 12.3145 11.3277ZM0.788155 21.4218L1.72575 22.8282H22.2742L23.2118 21.4218H0.788155Z" fill="black"/>
</svg>
