<svg width="27" height="24" viewBox="0 0 27 24" fill="none" xmlns="http://www.w3.org/2000/svg">
<g clip-path="url(#clip0_32_129)">
<path d="M13.9716 10.5001L21 13.0103V23.2501C21 23.449 20.921 23.6398 20.7803 23.7805C20.6397 23.9211 20.4489 24.0001 20.25 24.0001H17.25C17.0511 24.0001 16.8603 23.9211 16.7197 23.7805C16.579 23.6398 16.5 23.449 16.5 23.2501V18.0001H9V23.2501C9 23.449 8.92098 23.6398 8.78033 23.7805C8.63968 23.9211 8.44891 24.0001 8.25 24.0001H5.25C5.05109 24.0001 4.86032 23.9211 4.71967 23.7805C4.57902 23.6398 4.5 23.449 4.5 23.2501V13.2231C2.75813 12.602 1.5 10.9529 1.5 9.00012C1.5 8.60229 1.65804 8.22076 1.93934 7.93946C2.22064 7.65815 2.60218 7.50012 3 7.50012C3.39782 7.50012 3.77936 7.65815 4.06066 7.93946C4.34196 8.22076 4.5 8.60229 4.5 9.00012C4.50074 9.39772 4.65902 9.77881 4.94016 10.06C5.2213 10.3411 5.6024 10.4994 6 10.5001H13.9716ZM25.5 5.25012V6.75012C25.5 7.54577 25.1839 8.30883 24.6213 8.87144C24.0587 9.43405 23.2956 9.75012 22.5 9.75012H21V11.4179L15 9.27528V2.25012C15 1.58215 15.8072 1.24746 16.2802 1.71996L17.5589 3.00012H20.0728C20.5842 3.00012 21.1861 3.37137 21.4144 3.82934L21.75 4.50012H24.75C24.9489 4.50012 25.1397 4.57914 25.2803 4.71979C25.421 4.86044 25.5 5.05121 25.5 5.25012ZM20.25 5.25012C20.25 5.10178 20.206 4.95678 20.1236 4.83344C20.0412 4.7101 19.9241 4.61398 19.787 4.55721C19.65 4.50044 19.4992 4.48559 19.3537 4.51453C19.2082 4.54347 19.0746 4.6149 18.9697 4.71979C18.8648 4.82468 18.7934 4.95832 18.7644 5.1038C18.7355 5.24929 18.7503 5.40009 18.8071 5.53713C18.8639 5.67418 18.96 5.79131 19.0833 5.87372C19.2067 5.95613 19.3517 6.00012 19.5 6.00012C19.6989 6.00012 19.8897 5.9211 20.0303 5.78045C20.171 5.6398 20.25 5.44903 20.25 5.25012Z" fill="black"/>
</g>
<defs>
<clipPath id="clip0_32_129">
<rect width="27" height="24" fill="white"/>
</clipPath>
</defs>
</svg>
