<svg width="24" height="24" viewBox="0 0 24 24" fill="none" xmlns="http://www.w3.org/2000/svg">
<path d="M4.615 21C4.155 21 3.771 20.846 3.463 20.538C3.15433 20.2293 3 19.845 3 19.385V9.615C3 9.155 3.15433 8.771 3.463 8.463C3.771 8.15433 4.155 8 4.615 8H10V4C10 3.71933 10.0967 3.48267 10.29 3.29C10.482 3.09667 10.7187 3 11 3H13C13.2807 3 13.5173 3.09667 13.71 3.29C13.9033 3.48267 14 3.71933 14 4V8H19.385C19.845 8 20.229 8.15433 20.537 8.463C20.8457 8.771 21 9.155 21 9.615V19.385C21 19.845 20.846 20.229 20.538 20.537C20.2293 20.8457 19.845 21 19.385 21H4.615ZM4.615 20H19.385C19.5643 20 19.7117 19.9423 19.827 19.827C19.9423 19.7117 20 19.5643 20 19.385V9.615C20 9.43567 19.9423 9.28833 19.827 9.173C19.7117 9.05767 19.5643 9 19.385 9H14V9.77C14 10.0373 13.9003 10.2707 13.701 10.47C13.501 10.67 13.2673 10.77 13 10.77H11C10.732 10.77 10.4983 10.67 10.299 10.47C10.0997 10.2707 10 10.0373 10 9.77V9H4.615C4.43567 9 4.28833 9.05767 4.173 9.173C4.05767 9.28833 4 9.43567 4 9.615V19.385C4 19.5643 4.05767 19.7117 4.173 19.827C4.28833 19.9423 4.43567 20 4.615 20ZM6.308 17.423H11.692V17.281C11.692 17.049 11.6287 16.8377 11.502 16.647C11.376 16.457 11.2037 16.308 10.985 16.2C10.6643 16.0627 10.3397 15.9597 10.011 15.891C9.68167 15.8223 9.34467 15.788 9 15.788C8.65533 15.788 8.31867 15.8223 7.99 15.891C7.66067 15.9597 7.33567 16.0627 7.015 16.2C6.79633 16.308 6.62367 16.457 6.497 16.647C6.37033 16.8377 6.307 17.049 6.307 17.281L6.308 17.423ZM14 15.885H18V15H14V15.885ZM9 15C9.32667 15 9.607 14.883 9.841 14.649C10.075 14.4157 10.192 14.1353 10.192 13.808C10.192 13.4813 10.0753 13.2007 9.842 12.966C9.60733 12.7327 9.32667 12.616 9 12.616C8.67333 12.616 8.393 12.7327 8.159 12.966C7.925 13.2 7.808 13.4807 7.808 13.808C7.808 14.1347 7.92467 14.415 8.158 14.649C8.39267 14.883 8.67333 15 9 15ZM14 13.5H18V12.615H14V13.5ZM11 9.77H13V4H11V9.77Z" fill="black"/>
</svg>
