<svg width="40" height="40" viewBox="0 0 40 40" fill="none" xmlns="http://www.w3.org/2000/svg">
<rect width="40" height="40" rx="2" fill="#757D42"/>
<path opacity="0.5" d="M14.6667 11.3334H25.3333C26.3942 11.3334 27.4116 10.912 28.1617 10.1618C28.9119 9.4117 29.3333 8.39428 29.3333 7.33341C29.3333 7.1566 29.2631 6.98703 29.1381 6.86201C29.013 6.73699 28.8435 6.66675 28.6667 6.66675H11.3333C11.1565 6.66675 10.9869 6.73699 10.8619 6.86201C10.7369 6.98703 10.6667 7.1566 10.6667 7.33341C10.6667 8.39428 11.0881 9.4117 11.8382 10.1618C12.5884 10.912 13.6058 11.3334 14.6667 11.3334ZM25.3333 28.6667H14.6667C13.6058 28.6667 12.5884 29.0882 11.8382 29.8383C11.0881 30.5885 10.6667 31.6059 10.6667 32.6667C10.6667 32.8436 10.7369 33.0131 10.8619 33.1382C10.9869 33.2632 11.1565 33.3334 11.3333 33.3334H28.6667C28.8435 33.3334 29.013 33.2632 29.1381 33.1382C29.2631 33.0131 29.3333 32.8436 29.3333 32.6667C29.3333 31.6059 28.9119 30.5885 28.1617 29.8383C27.4116 29.0882 26.3942 28.6667 25.3333 28.6667Z" fill="white"/>
<path d="M10.6667 19.3333C10.6667 16.8187 10.6667 15.5627 11.448 14.7813C12.2293 14 13.4853 14 16 14H24C26.5147 14 27.7707 14 28.552 14.7813C29.3333 15.5627 29.3333 16.8187 29.3333 19.3333V20.6667C29.3333 23.1813 29.3333 24.4373 28.552 25.2187C27.7707 26 26.5147 26 24 26H16C13.4853 26 12.2293 26 11.448 25.2187C10.6667 24.4373 10.6667 23.1813 10.6667 20.6667V19.3333Z" fill="white"/>
</svg>
