<svg width="40" height="40" viewBox="0 0 40 40" fill="none" xmlns="http://www.w3.org/2000/svg">
<rect width="40" height="40" rx="2" fill="#757D42"/>
<mask id="mask0_0_1" style="mask-type:luminance" maskUnits="userSpaceOnUse" x="6" y="6" width="28" height="28">
<path d="M18.6667 21.3332L24.9867 11.3332C25.3733 11.5599 25.7467 11.7999 26.0933 12.0665L29.4533 10.7199C29.6667 10.6399 30.0267 10.6799 30.1333 10.8932L32.8933 15.6665C33.0267 15.8932 32.9733 16.2665 32.8 16.4265L29.9067 18.6665C29.9733 19.1065 30 19.5465 30 19.9999L18.6667 21.3332Z" fill="white"/>
<path d="M18.1786 19.5118L29.9989 19.9851C29.9959 20.4333 29.9747 20.8766 29.9171 21.3102L32.7634 23.5467C32.9393 23.6914 33.0847 24.0232 32.9533 24.2222L30.1995 28.9991C30.0698 29.2279 29.7198 29.3684 29.4946 29.2983L26.108 27.9126C25.7603 28.1903 25.3926 28.4334 25 28.6601L18.1786 19.5118Z" fill="white"/>
<path d="M19.512 18.1786L25.0122 28.6519C24.6226 28.8734 24.2281 29.0767 23.8238 29.2436L23.3101 32.8268C23.2727 33.0516 23.058 33.3433 22.8199 33.329L17.3061 33.3326C17.0431 33.3347 16.7465 33.1019 16.6946 32.8718L16.2014 29.2461C15.787 29.0838 15.3926 28.8869 15 28.6602L19.512 18.1786Z" fill="white"/>
<path d="M21.3333 18.6666L15.0133 28.6666C14.6267 28.4399 14.2533 28.1999 13.9067 27.9332L10.5467 29.2799C10.3333 29.3599 9.97333 29.3199 9.86666 29.1066L7.10666 24.3332C6.97333 24.1066 7.02666 23.7332 7.19999 23.5732L10.0933 21.3332C10.0267 20.8932 9.99999 20.4532 9.99999 19.9999L21.3333 18.6666Z" fill="white"/>
<path d="M21.8214 20.4879L10.0011 20.0147C10.0041 19.5665 10.0253 19.1232 10.0829 18.6896L7.23661 16.4531C7.06066 16.3083 6.9153 15.9766 7.04672 15.7775L9.80055 11.0006C9.93018 10.7718 10.2802 10.6313 10.5054 10.7015L13.892 12.0872C14.2397 11.8094 14.6074 11.5663 15 11.3397L21.8214 20.4879Z" fill="white"/>
<path d="M20.488 21.8214L14.9878 11.3481C15.3774 11.1266 15.7719 10.9233 16.1762 10.7564L16.6899 7.17319C16.7273 6.94843 16.942 6.65666 17.1801 6.67096L22.6939 6.66739C22.9569 6.66526 23.2535 6.89811 23.3054 7.12822L23.7986 10.7539C24.213 10.9162 24.6074 11.1131 25 11.3398L20.488 21.8214Z" fill="white"/>
<path d="M20 24.6666C22.5773 24.6666 24.6667 22.5772 24.6667 19.9999C24.6667 17.4226 22.5773 15.3333 20 15.3333C17.4227 15.3333 15.3333 17.4226 15.3333 19.9999C15.3333 22.5772 17.4227 24.6666 20 24.6666Z" fill="black"/>
</mask>
<g mask="url(#mask0_0_1)">
<path d="M36 4H4V36H36V4Z" fill="white"/>
</g>
</svg>
