<svg width="40" height="40" viewBox="0 0 40 40" fill="none" xmlns="http://www.w3.org/2000/svg">
<rect width="40" height="40" rx="2" fill="#757D42"/>
<path d="M33.6 27.5112L22.6687 8.52746C22.3956 8.06237 22.0056 7.67673 21.5375 7.40879C21.0694 7.14084 20.5394 6.99988 20 6.99988C19.4606 6.99988 18.9306 7.14084 18.4625 7.40879C17.9944 7.67673 17.6044 8.06237 17.3312 8.52746L6.4 27.5112C6.13717 27.9611 5.99866 28.4727 5.99866 28.9937C5.99866 29.5147 6.13717 30.0264 6.4 30.4762C6.66966 30.9441 7.05896 31.3318 7.52795 31.5996C7.99694 31.8674 8.52873 32.0056 9.06875 32H30.9312C31.4708 32.0051 32.0021 31.8667 32.4706 31.599C32.9391 31.3312 33.328 30.9437 33.5975 30.4762C33.8607 30.0266 33.9997 29.5151 34.0001 28.994C34.0005 28.473 33.8624 27.9613 33.6 27.5112ZM19 17C19 16.7347 19.1054 16.4804 19.2929 16.2929C19.4804 16.1053 19.7348 16 20 16C20.2652 16 20.5196 16.1053 20.7071 16.2929C20.8946 16.4804 21 16.7347 21 17V22C21 22.2652 20.8946 22.5195 20.7071 22.7071C20.5196 22.8946 20.2652 23 20 23C19.7348 23 19.4804 22.8946 19.2929 22.7071C19.1054 22.5195 19 22.2652 19 22V17ZM20 28C19.7033 28 19.4133 27.912 19.1666 27.7472C18.92 27.5823 18.7277 27.3481 18.6142 27.074C18.5006 26.7999 18.4709 26.4983 18.5288 26.2073C18.5867 25.9164 18.7296 25.6491 18.9393 25.4393C19.1491 25.2295 19.4164 25.0867 19.7074 25.0288C19.9983 24.9709 20.2999 25.0006 20.574 25.1141C20.8481 25.2277 21.0824 25.4199 21.2472 25.6666C21.412 25.9133 21.5 26.2033 21.5 26.5C21.5 26.8978 21.342 27.2793 21.0607 27.5606C20.7794 27.8419 20.3978 28 20 28Z" fill="white"/>
</svg>
