<svg width="40" height="40" viewBox="0 0 40 40" fill="none" xmlns="http://www.w3.org/2000/svg">
<rect width="40" height="40" rx="2" fill="#757D42"/>
<path d="M30.1333 32L21.7333 23.6C21.0667 24.1333 20.3 24.5556 19.4333 24.8667C18.5667 25.1778 17.6444 25.3333 16.6667 25.3333C14.2444 25.3333 12.1947 24.4942 10.5173 22.816C8.84 21.1378 8.00089 19.088 8 16.6667C8 14.2444 8.83911 12.1947 10.5173 10.5173C12.1956 8.84 14.2453 8.00089 16.6667 8C19.0889 8 21.1391 8.83911 22.8173 10.5173C24.4956 12.1956 25.3342 14.2453 25.3333 16.6667C25.3333 17.6444 25.1778 18.5667 24.8667 19.4333C24.5556 20.3 24.1333 21.0667 23.6 21.7333L32 30.1333L30.1333 32ZM16.6667 22.6667C18.3333 22.6667 19.7502 22.0836 20.9173 20.9173C22.0844 19.7511 22.6676 18.3342 22.6667 16.6667C22.6667 15 22.0836 13.5836 20.9173 12.4173C19.7511 11.2511 18.3342 10.6676 16.6667 10.6667C15 10.6667 13.5836 11.2502 12.4173 12.4173C11.2511 13.5844 10.6676 15.0009 10.6667 16.6667C10.6667 18.3333 11.2502 19.7502 12.4173 20.9173C13.5844 22.0844 15.0009 22.6676 16.6667 22.6667Z" fill="white"/>
</svg>
