<svg width="35" height="32" viewBox="0 0 35 32" fill="none" xmlns="http://www.w3.org/2000/svg">
<g clip-path="url(#clip0_32_54)">
<path d="M16.25 7.16667C16.25 8 16.1181 8.78819 15.8542 9.53125C15.5903 10.2743 15.1528 10.9167 14.5417 11.4583C13.9306 12 13.2014 12.2708 12.3542 12.2708C11.2986 12.2708 10.3403 11.8715 9.47917 11.0729C8.61806 10.2743 7.97917 9.33333 7.5625 8.25C7.14583 7.16667 6.9375 6.11806 6.9375 5.10417C6.9375 4.27083 7.06944 3.48264 7.33333 2.73958C7.59722 1.99653 8.03472 1.35417 8.64583 0.8125C9.25694 0.270833 9.98611 0 10.8333 0C11.9028 0 12.8646 0.399306 13.7187 1.19792C14.5729 1.99653 15.2083 2.93403 15.625 4.01042C16.0417 5.08681 16.25 6.13889 16.25 7.16667ZM9.125 17.2292C9.125 18.3403 8.83333 19.3056 8.25 20.125C7.66667 20.9444 6.84028 21.3542 5.77083 21.3542C4.71528 21.3542 3.73264 20.9688 2.82292 20.1979C1.91319 19.4271 1.21528 18.5 0.729167 17.4167C0.243056 16.3333 0 15.2778 0 14.25C0 13.1389 0.291667 12.1701 0.875 11.3438C1.45833 10.5174 2.28472 10.1042 3.35417 10.1042C4.40972 10.1042 5.39236 10.4896 6.30208 11.2604C7.21181 12.0312 7.90972 12.9618 8.39583 14.0521C8.88194 15.1424 9.125 16.2014 9.125 17.2292ZM17.3333 16.6667C18.9722 16.6667 20.7431 17.3438 22.6458 18.6979C24.5486 20.0521 26.1389 21.6979 27.4167 23.6354C28.6944 25.5729 29.3333 27.3403 29.3333 28.9375C29.3333 29.5764 29.2153 30.1076 28.9792 30.5312C28.7431 30.9549 28.4062 31.2674 27.9687 31.4688C27.5312 31.6701 27.0833 31.809 26.625 31.8854C26.1667 31.9618 25.6389 32 25.0417 32C24.0972 32 22.7951 31.6875 21.1354 31.0625C19.4757 30.4375 18.2083 30.125 17.3333 30.125C16.4167 30.125 15.0799 30.434 13.3229 31.0521C11.566 31.6701 10.1736 31.9792 9.14583 31.9792C6.60417 31.9792 5.33333 30.9653 5.33333 28.9375C5.33333 27.7431 5.72222 26.4132 6.5 24.9479C7.27778 23.4826 8.24653 22.1458 9.40625 20.9375C10.566 19.7292 11.8681 18.7153 13.3125 17.8958C14.7569 17.0764 16.0972 16.6667 17.3333 16.6667ZM22.3125 12.2708C21.4653 12.2708 20.7361 12 20.125 11.4583C19.5139 10.9167 19.0764 10.2743 18.8125 9.53125C18.5486 8.78819 18.4167 8 18.4167 7.16667C18.4167 6.13889 18.625 5.08681 19.0417 4.01042C19.4583 2.93403 20.0937 1.99653 20.9479 1.19792C21.8021 0.399306 22.7639 0 23.8333 0C24.6806 0 25.4097 0.270833 26.0208 0.8125C26.6319 1.35417 27.0694 1.99653 27.3333 2.73958C27.5972 3.48264 27.7292 4.27083 27.7292 5.10417C27.7292 6.11806 27.5208 7.16667 27.1042 8.25C26.6875 9.33333 26.0486 10.2743 25.1875 11.0729C24.3264 11.8715 23.3681 12.2708 22.3125 12.2708ZM31.3125 10.1042C32.3819 10.1042 33.2083 10.5174 33.7917 11.3438C34.375 12.1701 34.6667 13.1389 34.6667 14.25C34.6667 15.2778 34.4236 16.3333 33.9375 17.4167C33.4514 18.5 32.7535 19.4271 31.8437 20.1979C30.934 20.9688 29.9514 21.3542 28.8958 21.3542C27.8264 21.3542 27 20.9444 26.4167 20.125C25.8333 19.3056 25.5417 18.3403 25.5417 17.2292C25.5417 16.2014 25.7847 15.1424 26.2708 14.0521C26.7569 12.9618 27.4549 12.0312 28.3646 11.2604C29.2743 10.4896 30.2569 10.1042 31.3125 10.1042Z" fill="white"/>
</g>
<defs>
<clipPath id="clip0_32_54">
<rect width="34.6667" height="32" fill="white"/>
</clipPath>
</defs>
</svg>
