<svg width="28" height="40" viewBox="0 0 28 40" fill="none" xmlns="http://www.w3.org/2000/svg">
<path opacity="0.5" d="M6 7H22C23.5913 7 25.1174 6.36786 26.2426 5.24264C27.3679 4.11742 28 2.5913 28 1C28 0.734784 27.8946 0.48043 27.7071 0.292893C27.5196 0.105357 27.2652 0 27 0H1C0.734784 0 0.48043 0.105357 0.292893 0.292893C0.105357 0.48043 0 0.734784 0 1C0 2.5913 0.632141 4.11742 1.75736 5.24264C2.88258 6.36786 4.4087 7 6 7ZM22 33H6C4.4087 33 2.88258 33.6321 1.75736 34.7574C0.632141 35.8826 0 37.4087 0 39C0 39.2652 0.105357 39.5196 0.292893 39.7071C0.48043 39.8946 0.734784 40 1 40H27C27.2652 40 27.5196 39.8946 27.7071 39.7071C27.8946 39.5196 28 39.2652 28 39C28 37.4087 27.3679 35.8826 26.2426 34.7574C25.1174 33.6321 23.5913 33 22 33Z" fill="black"/>
<path d="M0 19C0 15.228 -1.19209e-07 13.344 1.172 12.172C2.344 11 4.228 11 8 11H20C23.772 11 25.656 11 26.828 12.172C28 13.344 28 15.228 28 19V21C28 24.772 28 26.656 26.828 27.828C25.656 29 23.772 29 20 29H8C4.228 29 2.344 29 1.172 27.828C-1.19209e-07 26.656 0 24.772 0 21V19Z" fill="black"/>
</svg>
